inDegrees=yes
name=ik_MT_2026-09-05_11h40_01210270-000-000_orientations
DataType=double
version=3
OpenSimVersion=4.5
endheader
time	pelvis_tilt	pelvis_list	pelvis_rotation	pelvis_tx	pelvis_ty	pelvis_tz	hip_flexion_r	hip_adduction_r	hip_rotation_r	knee_angle_r	knee_angle_r_beta	ankle_angle_r	subtalar_angle_r	mtp_angle_r	hip_flexion_l	hip_adduction_l	hip_rotation_l	knee_angle_l	knee_angle_l_beta	ankle_angle_l	subtalar_angle_l	mtp_angle_l	lumbar_extension	lumbar_bending	lumbar_rotation	arm_flex_r	arm_add_r	arm_rot_r	elbow_flex_r	pro_sup_r	wrist_flex_r	wrist_dev_r	arm_flex_l	arm_add_l	arm_rot_l	elbow_flex_l	pro_sup_l	wrist_flex_l	wrist_dev_l
63.3	0.5882652663656327	1.112873144029292	-738.2686976258634	0	0.9399999999999999	0	-9.895942958372681	3.388052595335366	-7.826159898251344	-8.796477254482721	-0.1535274906675146	5.509140914202332	0	0	32.78481968387143	4.653587755387999	-3.101003624935559	52.05394019654852	0.9085126450659958	1.425374007448872	0	0	-3.528479274203243	1.632847211987428	-6.230669647180457	10.27178822424853	-12.7983757782389	12.60865862603057	3.329668071807445	45.00000025534055	0	0	-10.73862968325023	4.77521887702902	14.37952094519155	81.63541891948226	45.00000025534055	0	0
63.325	0.8247919879443842	1.052208862058329	-739.1929127260667	0	0.9399999999999999	0	-11.28488214989447	2.913505499393025	-7.142263362247991	-9.047558465858195	-0.1579096844959125	5.958297683996843	0	0	32.84741292633422	1.79976334750538	-1.228703828691698	46.6911278580811	0.8149139125931629	2.351630966961144	0	0	-3.927168442873498	1.564758693954605	-5.89173383664353	11.56420629117904	-13.75908077018754	14.29890713749516	3.789913590118232	45.00000025534055	0	0	-10.9164131266835	5.167377411027326	13.1944166187888	81.6895924673311	45.00000025534055	0	0
63.35	0.9138427105454241	0.8462112321459236	-740.4709266481648	0	0.9399999999999999	0	-12.40548574360772	2.486302828139791	-6.323864245824392	-9.054117037170304	-0.1580241531595356	6.368365409152888	0	0	32.17402227693591	-1.327259227323843	-0.3811358107298497	39.69800342377147	0.692860866212794	2.321019282867206	0	0	-4.12868533753033	1.576566412402777	-5.562328616918797	12.69674716918538	-14.44631032116516	16.48127192447451	4.105815583304849	45.00000025534055	0	0	-11.15204952974251	5.568237339525838	11.65496543809413	81.65516409462417	45.00000025534055	0	0
63.375	1.014943432848856	0.5615213480695223	-741.8855911183739	0	0.9399999999999999	0	-13.35847697872615	2.068403407848984	-5.584299024315968	-8.644292015011006	-0.1508713571657971	6.854815580671019	0	0	30.93685841238997	-4.31040038742031	0.04283179552929112	31.66062453784506	0.5525821414231044	1.127098983055907	0	0	-4.366724889204229	1.551402862067983	-5.00934998757379	13.630182658742	-15.01041212509299	18.49053626967192	4.318299800082094	45.00000025534055	0	0	-11.40205430966631	5.863843807412245	10.35841164398152	81.53046263125755	45.00000025534055	0	0
63.4	1.085853237380014	0.1923469995958261	-743.590542638276	0	0.9399999999999999	0	-14.01331360506969	1.491365997725186	-4.745417698493877	-7.593207546612115	-0.1325264724756622	7.403326559694315	0	0	29.50510082653587	-7.192969528109042	0.9023980224905124	23.97706408925175	0.4184787133191386	0.03658127144475527	0	0	-4.445441588676213	1.478011880811442	-4.322853215492787	14.24262318972591	-15.33804600946895	20.38838472058767	4.449268671051111	45.00000025534055	0	0	-11.87461914912333	6.041719707999311	9.132272077584492	81.410151536467	45.00000025534055	0	0
63.425	1.566513132532815	-0.3752143847213848	-745.4870547485956	0	0.9399999999999999	0	-14.92756729712713	0.6052752273782003	-3.838219327130816	-6.045984859920766	-0.1055223423313455	7.92535534755214	0	0	27.54056084590452	-9.602130796936677	3.200849056912802	17.52379963374381	0.3058480010686059	-0.3878413308969496	0	0	-4.959494739667361	1.330022560355508	-3.323268918416797	14.45847806928628	-15.57977982128046	21.639876783096	4.657345816575383	45.00000025534055	0	0	-12.39847170294285	6.078321935485983	8.353775766301919	81.28509010096853	45.00000025534055	0	0
63.45	2.395579554579405	-0.9960280833948807	-747.4814086477887	0	0.9399999999999999	0	-16.21379933883974	-0.643849135616783	-2.703041474273428	-4.374989978760071	-0.07635797987112002	8.207997304185215	0	0	26.33237030361474	-11.5399094695954	6.370468128085494	13.47189819460271	0.235128979989297	0.6042472598012336	0	0	-5.9646408661346	1.046767268127755	-2.020555305673736	14.36170078971547	-15.83297924160914	21.89641424813647	5.018341022504853	45.00000025534055	0	0	-12.69868030198991	6.02450376906695	8.01178358909193	81.13531235444628	45.00000025534055	0	0
63.475	3.27321287960442	-1.454870618853666	-749.4465465617078	0	0.9399999999999999	0	-17.4117050260779	-2.28133270718411	-1.402430847358125	-2.557788849951276	-0.04464183700244898	7.986818362404732	0	0	26.00539225613081	-12.37710452483923	8.717281801500475	12.00913674129	0.2095989764577329	2.850104932435136	0	0	-6.935127424256781	0.4844382204613847	-0.708076687946678	13.84812029542144	-16.08588003774408	21.3908461854035	5.531459209607117	45.00000025534055	0	0	-12.96112771501045	5.870148116530652	7.960458652403831	80.9810613913707	45.00000025534055	0	0
63.5	3.915755448066134	-1.247964289333761	-750.9087227193011	0	0.9399999999999999	0	-17.9335195345629	-4.54261869208067	-0.806796763779425	-0.4391722743245647	-0.00766500217043541	6.937628920443774	0	0	26.19307472087444	-11.3830940383693	9.505148800692258	12.50493034559528	0.21825220726319	4.287884279003903	0	0	-7.278692058090462	-0.5677590198335127	-0.007228106732162976	12.84582062906535	-16.2905240344361	20.35582564325203	6.316326760558838	45.00000025534055	0	0	-13.27283657580295	5.648313369574789	8.051420337609565	80.92267511093959	45.00000025534055	0	0
63.525	4.559225872940124	-0.5797054198409877	-751.7655124500942	0	0.9399999999999999	0	-17.57432821397963	-7.423340559159587	-1.352796672421479	2.829008596934442	0.04937551458373117	4.874158177419583	0	0	26.33993309463671	-8.813840673996681	9.321571316012511	14.6755116263638	0.2561359972947562	4.970332029357536	0	0	-6.980497231478855	-1.974947074740415	-0.03371523710237352	11.18349413705194	-16.50991044152002	18.97643834688689	7.356983586849957	45.00000025534055	0	0	-13.90768415909313	5.551658057606013	8.105629476661308	80.85041805700817	45.00000025534055	0	0
63.55	5.473759850734679	-0.08374278003986235	-752.3007614454665	0	0.9399999999999999	0	-16.84153780040603	-10.89114913542909	-2.404305353956572	7.291815983324373	0.1272661973585582	1.470810618775781	0	0	25.14078968469192	-5.915768846927793	9.604046019902343	16.53973787980651	0.2886728834194498	1.208728361517208	0	0	-6.494922126070765	-3.378299224818882	-0.3441908119195068	8.829444718548922	-16.62124207080062	17.22311319374959	8.559460102472157	45.00000025534055	0	0	-14.92251648951327	5.579484892369631	8.125545679513428	80.60172198212209	45.00000025534055	0	0
63.575	5.723809591501925	0.4310029056580862	-752.803404629629	0	0.9399999999999999	0	-14.46186555879882	-15.05430447682135	-3.237604163246973	13.37880079763369	0.2335041238871515	-3.294845072762631	0	0	23.53121614991916	-4.236492839425514	10.71739587608694	16.90311316914839	0.2950149786388526	-1.861062647919514	0	0	-5.315842054723149	-4.63498789502354	-0.4963376683679835	6.231942584776391	-16.24477046522471	15.15569363429539	9.625100673293041	45.00000025534055	0	0	-15.96762353152652	5.54644358188873	8.242594983905382	80.08338385420855	45.00000025534055	0	0
63.6	5.65357080436511	1.169862574196827	-752.9071091948781	0	0.9399999999999999	0	-10.74513792412886	-20.0670836361244	-3.971263420861955	20.64980269565134	0.3604070469263165	-8.523974160111187	0	0	23.84161698128441	-1.616911783687854	10.55389714946225	18.83016604472888	0.3286483961777567	-2.933248438483217	0	0	-5.144409173925617	-5.71418843335415	-1.490951781330609	5.095597562638377	-15.46484734144665	13.43923801182506	10.25480578420966	45.00000025534055	0	0	-15.51975951025799	5.727324273607686	8.13527964664291	79.29817950891935	45.00000025534055	0	0
63.625	4.477640918810024	2.430741167701824	-752.7431170176133	0	0.9399999999999999	0	-5.230355956929698	-24.65490738388531	-3.684602286697491	28.48942338674822	0.4972342400934303	-11.84740963062504	0	0	26.37711010772785	1.363360333369747	11.18469209176897	22.24262270182511	0.3882070004256851	-1.014548526434514	0	0	-4.344891576547987	-6.491616741930215	-3.271697963343678	4.82829563771069	-14.1736389547498	12.95489398096791	10.06716910932106	45.00000025534055	0	0	-14.52427899656723	5.748486725242014	7.74407438248527	78.6793920027249	45.00000025534055	0	0
63.65	3.898758290615676	3.300667684822987	-752.6401628887523	0	0.9399999999999999	0	-1.55144709326687	-28.14189848345337	-3.800783243570865	34.94884429573158	0.609972402727355	-13.35569697582828	0	0	26.20191060807943	3.429314634669046	11.9268563842088	22.73012303734214	0.3967154863850343	-1.370648454696092	0	0	-4.065918996120043	-7.047871828014646	-5.318659338149736	4.332506742332199	-12.7833160866119	13.35525031536188	9.439229100957489	45.00000025534055	0	0	-13.74826037359486	5.614767872775441	7.362771985494338	78.30675849902303	45.00000025534055	0	0
63.675	4.348576019964401	3.442664006538307	-753.3181752807958	0	0.9399999999999999	0	-0.8040509927010882	-31.37232735696504	-5.255808173012397	39.23661807553734	0.6848081727656478	-13.64101551797235	0	0	23.68928193977588	4.444614770493469	10.82548342233964	21.65793807024521	0.3780023285188059	-1.746131398082488	0	0	-4.780318977224424	-7.501140492008798	-6.818770787840965	3.671809593063166	-11.42280787525979	14.25588282799646	8.542314562365258	45.00000025534055	0	0	-13.33514138973172	5.207870630165458	7.252895650096479	78.41983209203966	45.00000025534055	0	0
